<?xml version="1.0" encoding="utf-8" ?>
<svg baseProfile="full" height="57.5mm" version="1.1" viewBox="0,0,306.20000000000005,57.5" width="306.20000000000005mm" xmlns="http://www.w3.org/2000/svg" xmlns:ev="http://www.w3.org/2001/xml-events" xmlns:xlink="http://www.w3.org/1999/xlink"><defs /><rect fill="#fdf6e3" height="57.5" width="306.20000000000005" x="0" y="0" /><text fill="#586e75" style="font-size:6px; font-family:Arial; font-weight:bold;" x="10" y="10">darongshu</text><text fill="#586e75" style="font-size:3px; font-family:Arial;" x="10" y="14.4">2024: 346 hours</text><text fill="#586e75" style="font-size:2.5px; font-family:Arial" x="10" y="18.3">Jan</text><rect fill="#eee8d5" height="4" rx="1" ry="1" width="4" x="10" y="19.7"><title>2024-01-01</title></rect><rect fill="#eee8d5" height="4" rx="1" ry="1" width="4" x="10" y="25.1"><title>2024-01-02</title></rect><rect fill="#eee8d5" height="4" rx="1" ry="1" width="4" x="10" y="30.5"><title>2024-01-03</title></rect><rect fill="#b8a302" height="4" rx="1" ry="1" width="4" x="10" y="35.9"><title>2024-01-04 19.8 mins</title></rect><rect fill="#b58a00" height="4" rx="1" ry="1" width="4" x="10" y="41.300000000000004"><title>2024-01-05 0.42 mins</title></rect><rect fill="#b79e02" height="4" rx="1" ry="1" width="4" x="10" y="46.699999999999996"><title>2024-01-06 15.88 mins</title></rect><rect fill="#b68e00" height="4" rx="1" ry="1" width="4" x="10" y="52.1"><title>2024-01-07 4.05 mins</title></rect><rect fill="#b68e00" height="4" rx="1" ry="1" width="4" x="15.4" y="19.7"><title>2024-01-08 4.07 mins</title></rect><rect fill="#b8a903" height="4" rx="1" ry="1" width="4" x="15.4" y="25.1"><title>2024-01-09 24.82 mins</title></rect><rect fill="#b58b00" height="4" rx="1" ry="1" width="4" x="15.4" y="30.5"><title>2024-01-10 1.28 mins</title></rect><rect fill="#b69201" height="4" rx="1" ry="1" width="4" x="15.4" y="35.9"><title>2024-01-11 6.67 mins</title></rect><rect fill="#cd7d1a" height="4" rx="1" ry="1" width="4" x="15.4" y="41.300000000000004"><title>2024-01-12 35.6 mins</title></rect><rect fill="#b8a102" height="4" rx="1" ry="1" width="4" x="15.4" y="46.699999999999996"><title>2024-01-13 18.25 mins</title></rect><rect fill="#b79701" height="4" rx="1" ry="1" width="4" x="15.4" y="52.1"><title>2024-01-14 10.7 mins</title></rect><rect fill="#b79901" height="4" rx="1" ry="1" width="4" x="20.8" y="19.7"><title>2024-01-15 12.48 mins</title></rect><rect fill="#b58b00" height="4" rx="1" ry="1" width="4" x="20.8" y="25.1"><title>2024-01-16 1.7 mins</title></rect><rect fill="#b58d00" height="4" rx="1" ry="1" width="4" x="20.8" y="30.5"><title>2024-01-17 3.35 mins</title></rect><rect fill="#b79e02" height="4" rx="1" ry="1" width="4" x="20.8" y="35.9"><title>2024-01-18 16.13 mins</title></rect><rect fill="#b79f02" height="4" rx="1" ry="1" width="4" x="20.8" y="41.300000000000004"><title>2024-01-19 17.17 mins</title></rect><rect fill="#b79701" height="4" rx="1" ry="1" width="4" x="20.8" y="46.699999999999996"><title>2024-01-20 10.85 mins</title></rect><rect fill="#b79b01" height="4" rx="1" ry="1" width="4" x="20.8" y="52.1"><title>2024-01-21 14.0 mins</title></rect><rect fill="#b58d00" height="4" rx="1" ry="1" width="4" x="26.200000000000003" y="19.7"><title>2024-01-22 2.95 mins</title></rect><rect fill="#b79701" height="4" rx="1" ry="1" width="4" x="26.200000000000003" y="25.1"><title>2024-01-23 10.95 mins</title></rect><rect fill="#cd7e1a" height="4" rx="1" ry="1" width="4" x="26.200000000000003" y="30.5"><title>2024-01-24 36.35 mins</title></rect><rect fill="#b69601" height="4" rx="1" ry="1" width="4" x="26.200000000000003" y="35.9"><title>2024-01-25 10.25 mins</title></rect><rect fill="#b79901" height="4" rx="1" ry="1" width="4" x="26.200000000000003" y="41.300000000000004"><title>2024-01-26 12.38 mins</title></rect><rect fill="#b69101" height="4" rx="1" ry="1" width="4" x="26.200000000000003" y="46.699999999999996"><title>2024-01-27 5.98 mins</title></rect><rect fill="#6c71c4" height="4" rx="1" ry="1" width="4" x="26.200000000000003" y="52.1"><title>2024-01-28 266.93 mins</title></rect><rect fill="#6c71c4" height="4" rx="1" ry="1" width="4" x="31.6" y="19.7"><title>2024-01-29 208.8 mins</title></rect><rect fill="#6c71c4" height="4" rx="1" ry="1" width="4" x="31.6" y="25.1"><title>2024-01-30 269.85 mins</title></rect><rect fill="#b8a803" height="4" rx="1" ry="1" width="4" x="31.6" y="30.5"><title>2024-01-31 23.53 mins</title></rect><rect fill="#b68f00" height="4" rx="1" ry="1" width="4" x="31.6" y="35.9"><title>2024-02-01 4.27 mins</title></rect><rect fill="#cd7519" height="4" rx="1" ry="1" width="4" x="31.6" y="41.300000000000004"><title>2024-02-02 29.6 mins</title></rect><rect fill="#cd831a" height="4" rx="1" ry="1" width="4" x="31.6" y="46.699999999999996"><title>2024-02-03 39.43 mins</title></rect><rect fill="#b69101" height="4" rx="1" ry="1" width="4" x="31.6" y="52.1"><title>2024-02-04 6.17 mins</title></rect><text fill="#586e75" style="font-size:2.5px; font-family:Arial" x="37.0" y="18.3">Feb</text><rect fill="#6c71c4" height="4" rx="1" ry="1" width="4" x="37.0" y="19.7"><title>2024-02-05 137.93 mins</title></rect><rect fill="#6c71c4" height="4" rx="1" ry="1" width="4" x="37.0" y="25.1"><title>2024-02-06 202.02 mins</title></rect><rect fill="#6c71c4" height="4" rx="1" ry="1" width="4" x="37.0" y="30.5"><title>2024-02-07 164.15 mins</title></rect><rect fill="#b58900" height="4" rx="1" ry="1" width="4" x="37.0" y="35.9"><title>2024-02-08 0.22 mins</title></rect><rect fill="#eee8d5" height="4" rx="1" ry="1" width="4" x="37.0" y="41.300000000000004"><title>2024-02-09</title></rect><rect fill="#b79d02" height="4" rx="1" ry="1" width="4" x="37.0" y="46.699999999999996"><title>2024-02-10 15.22 mins</title></rect><rect fill="#b58900" height="4" rx="1" ry="1" width="4" x="37.0" y="52.1"><title>2024-02-11 0.1 mins</title></rect><rect fill="#6c71c4" height="4" rx="1" ry="1" width="4" x="42.4" y="19.7"><title>2024-02-12 186.8 mins</title></rect><rect fill="#b58a00" height="4" rx="1" ry="1" width="4" x="42.4" y="25.1"><title>2024-02-13 1.13 mins</title></rect><rect fill="#b58b00" height="4" rx="1" ry="1" width="4" x="42.4" y="30.5"><title>2024-02-14 1.87 mins</title></rect><rect fill="#b79d02" height="4" rx="1" ry="1" width="4" x="42.4" y="35.9"><title>2024-02-15 15.15 mins</title></rect><rect fill="#d0cd20" height="4" rx="1" ry="1" width="4" x="42.4" y="41.300000000000004"><title>2024-02-16 93.27 mins</title></rect><rect fill="#b68e00" height="4" rx="1" ry="1" width="4" x="42.4" y="46.699999999999996"><title>2024-02-17 3.58 mins</title></rect><rect fill="#cd811a" height="4" rx="1" ry="1" width="4" x="42.4" y="52.1"><title>2024-02-18 38.17 mins</title></rect><rect fill="#cea11c" height="4" rx="1" ry="1" width="4" x="47.8" y="19.7"><title>2024-02-19 61.45 mins</title></rect><rect fill="#6c71c4" height="4" rx="1" ry="1" width="4" x="47.8" y="25.1"><title>2024-02-20 127.77 mins</title></rect><rect fill="#cfbf1f" height="4" rx="1" ry="1" width="4" x="47.8" y="30.5"><title>2024-02-21 82.98 mins</title></rect><rect fill="#ce991c" height="4" rx="1" ry="1" width="4" x="47.8" y="35.9"><title>2024-02-22 55.17 mins</title></rect><rect fill="#b79f02" height="4" rx="1" ry="1" width="4" x="47.8" y="41.300000000000004"><title>2024-02-23 17.23 mins</title></rect><rect fill="#b69401" height="4" rx="1" ry="1" width="4" x="47.8" y="46.699999999999996"><title>2024-02-24 8.52 mins</title></rect><rect fill="#6c71c4" height="4" rx="1" ry="1" width="4" x="47.8" y="52.1"><title>2024-02-25 251.62 mins</title></rect><rect fill="#b58a00" height="4" rx="1" ry="1" width="4" x="53.199999999999996" y="19.7"><title>2024-02-26 0.8 mins</title></rect><rect fill="#cd7b19" height="4" rx="1" ry="1" width="4" x="53.199999999999996" y="25.1"><title>2024-02-27 33.72 mins</title></rect><rect fill="#b79a01" height="4" rx="1" ry="1" width="4" x="53.199999999999996" y="30.5"><title>2024-02-28 12.8 mins</title></rect><rect fill="#b8a002" height="4" rx="1" ry="1" width="4" x="53.199999999999996" y="35.9"><title>2024-02-29 17.72 mins</title></rect><rect fill="#6c71c4" height="4" rx="1" ry="1" width="4" x="53.199999999999996" y="41.300000000000004"><title>2024-03-01 264.32 mins</title></rect><rect fill="#b69301" height="4" rx="1" ry="1" width="4" x="53.199999999999996" y="46.699999999999996"><title>2024-03-02 7.78 mins</title></rect><rect fill="#b69001" height="4" rx="1" ry="1" width="4" x="53.199999999999996" y="52.1"><title>2024-03-03 5.38 mins</title></rect><text fill="#586e75" style="font-size:2.5px; font-family:Arial" x="58.599999999999994" y="18.3">Mar</text><rect fill="#b79701" height="4" rx="1" ry="1" width="4" x="58.599999999999994" y="19.7"><title>2024-03-04 10.57 mins</title></rect><rect fill="#b58d00" height="4" rx="1" ry="1" width="4" x="58.599999999999994" y="25.1"><title>2024-03-05 3.22 mins</title></rect><rect fill="#ce951c" height="4" rx="1" ry="1" width="4" x="58.599999999999994" y="30.5"><title>2024-03-06 52.57 mins</title></rect><rect fill="#b58900" height="4" rx="1" ry="1" width="4" x="58.599999999999994" y="35.9"><title>2024-03-07 0.38 mins</title></rect><rect fill="#cd7b19" height="4" rx="1" ry="1" width="4" x="58.599999999999994" y="41.300000000000004"><title>2024-03-08 33.55 mins</title></rect><rect fill="#6c71c4" height="4" rx="1" ry="1" width="4" x="58.599999999999994" y="46.699999999999996"><title>2024-03-09 212.0 mins</title></rect><rect fill="#cd851a" height="4" rx="1" ry="1" width="4" x="58.599999999999994" y="52.1"><title>2024-03-10 41.27 mins</title></rect><rect fill="#d0c21f" height="4" rx="1" ry="1" width="4" x="63.99999999999999" y="19.7"><title>2024-03-11 85.55 mins</title></rect><rect fill="#6c71c4" height="4" rx="1" ry="1" width="4" x="63.99999999999999" y="25.1"><title>2024-03-12 118.68 mins</title></rect><rect fill="#ce901b" height="4" rx="1" ry="1" width="4" x="63.99999999999999" y="30.5"><title>2024-03-13 48.85 mins</title></rect><rect fill="#b68e00" height="4" rx="1" ry="1" width="4" x="63.99999999999999" y="35.9"><title>2024-03-14 3.78 mins</title></rect><rect fill="#b58b00" height="4" rx="1" ry="1" width="4" x="63.99999999999999" y="41.300000000000004"><title>2024-03-15 1.83 mins</title></rect><rect fill="#6c71c4" height="4" rx="1" ry="1" width="4" x="63.99999999999999" y="46.699999999999996"><title>2024-03-16 189.88 mins</title></rect><rect fill="#b69001" height="4" rx="1" ry="1" width="4" x="63.99999999999999" y="52.1"><title>2024-03-17 5.58 mins</title></rect><rect fill="#b68e00" height="4" rx="1" ry="1" width="4" x="69.39999999999999" y="19.7"><title>2024-03-18 3.62 mins</title></rect><rect fill="#b58c00" height="4" rx="1" ry="1" width="4" x="69.39999999999999" y="25.1"><title>2024-03-19 2.42 mins</title></rect><rect fill="#b79801" height="4" rx="1" ry="1" width="4" x="69.39999999999999" y="30.5"><title>2024-03-20 11.22 mins</title></rect><rect fill="#6c71c4" height="4" rx="1" ry="1" width="4" x="69.39999999999999" y="35.9"><title>2024-03-21 116.47 mins</title></rect><rect fill="#ce951c" height="4" rx="1" ry="1" width="4" x="69.39999999999999" y="41.300000000000004"><title>2024-03-22 52.52 mins</title></rect><rect fill="#cea11c" height="4" rx="1" ry="1" width="4" x="69.39999999999999" y="46.699999999999996"><title>2024-03-23 61.23 mins</title></rect><rect fill="#6c71c4" height="4" rx="1" ry="1" width="4" x="69.39999999999999" y="52.1"><title>2024-03-24 115.82 mins</title></rect><rect fill="#bdd122" height="4" rx="1" ry="1" width="4" x="74.8" y="19.7"><title>2024-03-25 111.23 mins</title></rect><rect fill="#ce8e1b" height="4" rx="1" ry="1" width="4" x="74.8" y="25.1"><title>2024-03-26 47.28 mins</title></rect><rect fill="#b58900" height="4" rx="1" ry="1" width="4" x="74.8" y="30.5"><title>2024-03-27 0.22 mins</title></rect><rect fill="#6c71c4" height="4" rx="1" ry="1" width="4" x="74.8" y="35.9"><title>2024-03-28 161.87 mins</title></rect><rect fill="#b58d00" height="4" rx="1" ry="1" width="4" x="74.8" y="41.300000000000004"><title>2024-03-29 3.3 mins</title></rect><rect fill="#ce8b1b" height="4" rx="1" ry="1" width="4" x="74.8" y="46.699999999999996"><title>2024-03-30 45.67 mins</title></rect><rect fill="#b69301" height="4" rx="1" ry="1" width="4" x="74.8" y="52.1"><title>2024-03-31 7.52 mins</title></rect><text fill="#586e75" style="font-size:2.5px; font-family:Arial" x="80.2" y="18.3">Apr</text><rect fill="#b7a002" height="4" rx="1" ry="1" width="4" x="80.2" y="19.7"><title>2024-04-01 17.3 mins</title></rect><rect fill="#ce901b" height="4" rx="1" ry="1" width="4" x="80.2" y="25.1"><title>2024-04-02 49.15 mins</title></rect><rect fill="#cd811a" height="4" rx="1" ry="1" width="4" x="80.2" y="30.5"><title>2024-04-03 38.18 mins</title></rect><rect fill="#b58900" height="4" rx="1" ry="1" width="4" x="80.2" y="35.9"><title>2024-04-04 0.1 mins</title></rect><rect fill="#b58d00" height="4" rx="1" ry="1" width="4" x="80.2" y="41.300000000000004"><title>2024-04-05 2.95 mins</title></rect><rect fill="#b68e00" height="4" rx="1" ry="1" width="4" x="80.2" y="46.699999999999996"><title>2024-04-06 3.82 mins</title></rect><rect fill="#6c71c4" height="4" rx="1" ry="1" width="4" x="80.2" y="52.1"><title>2024-04-07 154.67 mins</title></rect><rect fill="#b69201" height="4" rx="1" ry="1" width="4" x="85.60000000000001" y="19.7"><title>2024-04-08 7.0 mins</title></rect><rect fill="#b7a002" height="4" rx="1" ry="1" width="4" x="85.60000000000001" y="25.1"><title>2024-04-09 17.57 mins</title></rect><rect fill="#cd7d1a" height="4" rx="1" ry="1" width="4" x="85.60000000000001" y="30.5"><title>2024-04-10 35.65 mins</title></rect><rect fill="#b69301" height="4" rx="1" ry="1" width="4" x="85.60000000000001" y="35.9"><title>2024-04-11 7.38 mins</title></rect><rect fill="#b58b00" height="4" rx="1" ry="1" width="4" x="85.60000000000001" y="41.300000000000004"><title>2024-04-12 1.53 mins</title></rect><rect fill="#eee8d5" height="4" rx="1" ry="1" width="4" x="85.60000000000001" y="46.699999999999996"><title>2024-04-13</title></rect><rect fill="#b9ab03" height="4" rx="1" ry="1" width="4" x="85.60000000000001" y="52.1"><title>2024-04-14 25.92 mins</title></rect><rect fill="#b8a002" height="4" rx="1" ry="1" width="4" x="91.00000000000001" y="19.7"><title>2024-04-15 17.75 mins</title></rect><rect fill="#b69601" height="4" rx="1" ry="1" width="4" x="91.00000000000001" y="25.1"><title>2024-04-16 10.22 mins</title></rect><rect fill="#b79901" height="4" rx="1" ry="1" width="4" x="91.00000000000001" y="30.5"><title>2024-04-17 12.02 mins</title></rect><rect fill="#6c71c4" height="4" rx="1" ry="1" width="4" x="91.00000000000001" y="35.9"><title>2024-04-18 150.73 mins</title></rect><rect fill="#6c71c4" height="4" rx="1" ry="1" width="4" x="91.00000000000001" y="41.300000000000004"><title>2024-04-19 195.35 mins</title></rect><rect fill="#6c71c4" height="4" rx="1" ry="1" width="4" x="91.00000000000001" y="46.699999999999996"><title>2024-04-20 112.83 mins</title></rect><rect fill="#6c71c4" height="4" rx="1" ry="1" width="4" x="91.00000000000001" y="52.1"><title>2024-04-21 407.25 mins</title></rect><rect fill="#b58a00" height="4" rx="1" ry="1" width="4" x="96.40000000000002" y="19.7"><title>2024-04-22 0.75 mins</title></rect><rect fill="#eee8d5" height="4" rx="1" ry="1" width="4" x="96.40000000000002" y="25.1"><title>2024-04-23</title></rect><rect fill="#b58c00" height="4" rx="1" ry="1" width="4" x="96.40000000000002" y="30.5"><title>2024-04-24 2.3 mins</title></rect><rect fill="#cd7b19" height="4" rx="1" ry="1" width="4" x="96.40000000000002" y="35.9"><title>2024-04-25 33.58 mins</title></rect><rect fill="#b8a803" height="4" rx="1" ry="1" width="4" x="96.40000000000002" y="41.300000000000004"><title>2024-04-26 24.0 mins</title></rect><rect fill="#b58b00" height="4" rx="1" ry="1" width="4" x="96.40000000000002" y="46.699999999999996"><title>2024-04-27 1.63 mins</title></rect><rect fill="#b58a00" height="4" rx="1" ry="1" width="4" x="96.40000000000002" y="52.1"><title>2024-04-28 0.48 mins</title></rect><rect fill="#eee8d5" height="4" rx="1" ry="1" width="4" x="101.80000000000003" y="19.7"><title>2024-04-29</title></rect><rect fill="#b79901" height="4" rx="1" ry="1" width="4" x="101.80000000000003" y="25.1"><title>2024-04-30 12.02 mins</title></rect><rect fill="#eee8d5" height="4" rx="1" ry="1" width="4" x="101.80000000000003" y="30.5"><title>2024-05-01</title></rect><rect fill="#eee8d5" height="4" rx="1" ry="1" width="4" x="101.80000000000003" y="35.9"><title>2024-05-02</title></rect><rect fill="#eee8d5" height="4" rx="1" ry="1" width="4" x="101.80000000000003" y="41.300000000000004"><title>2024-05-03</title></rect><rect fill="#b58a00" height="4" rx="1" ry="1" width="4" x="101.80000000000003" y="46.699999999999996"><title>2024-05-04 0.6 mins</title></rect><rect fill="#b58900" height="4" rx="1" ry="1" width="4" x="101.80000000000003" y="52.1"><title>2024-05-05 0.4 mins</title></rect><text fill="#586e75" style="font-size:2.5px; font-family:Arial" x="107.20000000000003" y="18.3">May</text><rect fill="#cfb11e" height="4" rx="1" ry="1" width="4" x="107.20000000000003" y="19.7"><title>2024-05-06 72.7 mins</title></rect><rect fill="#b79b01" height="4" rx="1" ry="1" width="4" x="107.20000000000003" y="25.1"><title>2024-05-07 13.58 mins</title></rect><rect fill="#cd7919" height="4" rx="1" ry="1" width="4" x="107.20000000000003" y="30.5"><title>2024-05-08 32.43 mins</title></rect><rect fill="#ce8e1b" height="4" rx="1" ry="1" width="4" x="107.20000000000003" y="35.9"><title>2024-05-09 47.5 mins</title></rect><rect fill="#eee8d5" height="4" rx="1" ry="1" width="4" x="107.20000000000003" y="41.300000000000004"><title>2024-05-10</title></rect><rect fill="#c0d122" height="4" rx="1" ry="1" width="4" x="107.20000000000003" y="46.699999999999996"><title>2024-05-11 108.1 mins</title></rect><rect fill="#eee8d5" height="4" rx="1" ry="1" width="4" x="107.20000000000003" y="52.1"><title>2024-05-12</title></rect><rect fill="#b8a302" height="4" rx="1" ry="1" width="4" x="112.60000000000004" y="19.7"><title>2024-05-13 19.77 mins</title></rect><rect fill="#eee8d5" height="4" rx="1" ry="1" width="4" x="112.60000000000004" y="25.1"><title>2024-05-14</title></rect><rect fill="#b8a202" height="4" rx="1" ry="1" width="4" x="112.60000000000004" y="30.5"><title>2024-05-15 19.18 mins</title></rect><rect fill="#b79901" height="4" rx="1" ry="1" width="4" x="112.60000000000004" y="35.9"><title>2024-05-16 12.0 mins</title></rect><rect fill="#b79d02" height="4" rx="1" ry="1" width="4" x="112.60000000000004" y="41.300000000000004"><title>2024-05-17 15.17 mins</title></rect><rect fill="#ce9c1c" height="4" rx="1" ry="1" width="4" x="112.60000000000004" y="46.699999999999996"><title>2024-05-18 57.23 mins</title></rect><rect fill="#eee8d5" height="4" rx="1" ry="1" width="4" x="112.60000000000004" y="52.1"><title>2024-05-19</title></rect><rect fill="#cd7f1a" height="4" rx="1" ry="1" width="4" x="118.00000000000004" y="19.7"><title>2024-05-20 36.4 mins</title></rect><rect fill="#6c71c4" height="4" rx="1" ry="1" width="4" x="118.00000000000004" y="25.1"><title>2024-05-21 160.82 mins</title></rect><rect fill="#b79a01" height="4" rx="1" ry="1" width="4" x="118.00000000000004" y="30.5"><title>2024-05-22 13.15 mins</title></rect><rect fill="#b9ab03" height="4" rx="1" ry="1" width="4" x="118.00000000000004" y="35.9"><title>2024-05-23 26.2 mins</title></rect><rect fill="#d0c51f" height="4" rx="1" ry="1" width="4" x="118.00000000000004" y="41.300000000000004"><title>2024-05-24 87.68 mins</title></rect><rect fill="#cd7b1a" height="4" rx="1" ry="1" width="4" x="118.00000000000004" y="46.699999999999996"><title>2024-05-25 34.1 mins</title></rect><rect fill="#6c71c4" height="4" rx="1" ry="1" width="4" x="118.00000000000004" y="52.1"><title>2024-05-26 167.22 mins</title></rect><rect fill="#cd7719" height="4" rx="1" ry="1" width="4" x="123.40000000000005" y="19.7"><title>2024-05-27 30.98 mins</title></rect><rect fill="#ce9a1c" height="4" rx="1" ry="1" width="4" x="123.40000000000005" y="25.1"><title>2024-05-28 56.37 mins</title></rect><rect fill="#cfaf1e" height="4" rx="1" ry="1" width="4" x="123.40000000000005" y="30.5"><title>2024-05-29 71.63 mins</title></rect><rect fill="#cd821a" height="4" rx="1" ry="1" width="4" x="123.40000000000005" y="35.9"><title>2024-05-30 38.63 mins</title></rect><rect fill="#ce991c" height="4" rx="1" ry="1" width="4" x="123.40000000000005" y="41.300000000000004"><title>2024-05-31 55.52 mins</title></rect><rect fill="#eee8d5" height="4" rx="1" ry="1" width="4" x="123.40000000000005" y="46.699999999999996"><title>2024-06-01</title></rect><rect fill="#ce9c1c" height="4" rx="1" ry="1" width="4" x="123.40000000000005" y="52.1"><title>2024-06-02 57.18 mins</title></rect><text fill="#586e75" style="font-size:2.5px; font-family:Arial" x="128.80000000000004" y="18.3">Jun</text><rect fill="#b69001" height="4" rx="1" ry="1" width="4" x="128.80000000000004" y="19.7"><title>2024-06-03 5.33 mins</title></rect><rect fill="#6c71c4" height="4" rx="1" ry="1" width="4" x="128.80000000000004" y="25.1"><title>2024-06-04 132.85 mins</title></rect><rect fill="#6c71c4" height="4" rx="1" ry="1" width="4" x="128.80000000000004" y="30.5"><title>2024-06-05 235.32 mins</title></rect><rect fill="#b79c02" height="4" rx="1" ry="1" width="4" x="128.80000000000004" y="35.9"><title>2024-06-06 14.55 mins</title></rect><rect fill="#cd7819" height="4" rx="1" ry="1" width="4" x="128.80000000000004" y="41.300000000000004"><title>2024-06-07 31.58 mins</title></rect><rect fill="#6c71c4" height="4" rx="1" ry="1" width="4" x="128.80000000000004" y="46.699999999999996"><title>2024-06-08 126.0 mins</title></rect><rect fill="#cd7519" height="4" rx="1" ry="1" width="4" x="128.80000000000004" y="52.1"><title>2024-06-09 29.98 mins</title></rect><rect fill="#cd801a" height="4" rx="1" ry="1" width="4" x="134.20000000000005" y="19.7"><title>2024-06-10 37.68 mins</title></rect><rect fill="#b69401" height="4" rx="1" ry="1" width="4" x="134.20000000000005" y="25.1"><title>2024-06-11 8.25 mins</title></rect><rect fill="#cfae1d" height="4" rx="1" ry="1" width="4" x="134.20000000000005" y="30.5"><title>2024-06-12 70.28 mins</title></rect><rect fill="#cfba1e" height="4" rx="1" ry="1" width="4" x="134.20000000000005" y="35.9"><title>2024-06-13 79.7 mins</title></rect><rect fill="#c8d021" height="4" rx="1" ry="1" width="4" x="134.20000000000005" y="41.300000000000004"><title>2024-06-14 102.37 mins</title></rect><rect fill="#b58900" height="4" rx="1" ry="1" width="4" x="134.20000000000005" y="46.699999999999996"><title>2024-06-15 0.38 mins</title></rect><rect fill="#b79801" height="4" rx="1" ry="1" width="4" x="134.20000000000005" y="52.1"><title>2024-06-16 11.77 mins</title></rect><rect fill="#b9ac03" height="4" rx="1" ry="1" width="4" x="139.60000000000005" y="19.7"><title>2024-06-17 27.13 mins</title></rect><rect fill="#b69201" height="4" rx="1" ry="1" width="4" x="139.60000000000005" y="25.1"><title>2024-06-18 6.83 mins</title></rect><rect fill="#b69501" height="4" rx="1" ry="1" width="4" x="139.60000000000005" y="30.5"><title>2024-06-19 9.38 mins</title></rect><rect fill="#6c71c4" height="4" rx="1" ry="1" width="4" x="139.60000000000005" y="35.9"><title>2024-06-20 332.72 mins</title></rect><rect fill="#b8a202" height="4" rx="1" ry="1" width="4" x="139.60000000000005" y="41.300000000000004"><title>2024-06-21 19.12 mins</title></rect><rect fill="#cd7c1a" height="4" rx="1" ry="1" width="4" x="139.60000000000005" y="46.699999999999996"><title>2024-06-22 34.32 mins</title></rect><rect fill="#b58a00" height="4" rx="1" ry="1" width="4" x="139.60000000000005" y="52.1"><title>2024-06-23 0.62 mins</title></rect><rect fill="#6c71c4" height="4" rx="1" ry="1" width="4" x="145.00000000000006" y="19.7"><title>2024-06-24 185.9 mins</title></rect><rect fill="#6c71c4" height="4" rx="1" ry="1" width="4" x="145.00000000000006" y="25.1"><title>2024-06-25 171.08 mins</title></rect><rect fill="#cd7419" height="4" rx="1" ry="1" width="4" x="145.00000000000006" y="30.5"><title>2024-06-26 29.23 mins</title></rect><rect fill="#b69301" height="4" rx="1" ry="1" width="4" x="145.00000000000006" y="35.9"><title>2024-06-27 7.45 mins</title></rect><rect fill="#cd7919" height="4" rx="1" ry="1" width="4" x="145.00000000000006" y="41.300000000000004"><title>2024-06-28 32.57 mins</title></rect><rect fill="#b58900" height="4" rx="1" ry="1" width="4" x="145.00000000000006" y="46.699999999999996"><title>2024-06-29 0.22 mins</title></rect><rect fill="#cfa61d" height="4" rx="1" ry="1" width="4" x="145.00000000000006" y="52.1"><title>2024-06-30 65.02 mins</title></rect><text fill="#586e75" style="font-size:2.5px; font-family:Arial" x="150.40000000000006" y="18.3">Jul</text><rect fill="#b79701" height="4" rx="1" ry="1" width="4" x="150.40000000000006" y="19.7"><title>2024-07-01 10.55 mins</title></rect><rect fill="#cd8a1b" height="4" rx="1" ry="1" width="4" x="150.40000000000006" y="25.1"><title>2024-07-02 44.85 mins</title></rect><rect fill="#b69001" height="4" rx="1" ry="1" width="4" x="150.40000000000006" y="30.5"><title>2024-07-03 5.12 mins</title></rect><rect fill="#ce9d1c" height="4" rx="1" ry="1" width="4" x="150.40000000000006" y="35.9"><title>2024-07-04 57.97 mins</title></rect><rect fill="#b58900" height="4" rx="1" ry="1" width="4" x="150.40000000000006" y="41.300000000000004"><title>2024-07-05 0.03 mins</title></rect><rect fill="#b79f02" height="4" rx="1" ry="1" width="4" x="150.40000000000006" y="46.699999999999996"><title>2024-07-06 16.72 mins</title></rect><rect fill="#b79c02" height="4" rx="1" ry="1" width="4" x="150.40000000000006" y="52.1"><title>2024-07-07 14.87 mins</title></rect><rect fill="#ce991c" height="4" rx="1" ry="1" width="4" x="155.80000000000007" y="19.7"><title>2024-07-08 55.3 mins</title></rect><rect fill="#b69001" height="4" rx="1" ry="1" width="4" x="155.80000000000007" y="25.1"><title>2024-07-09 5.13 mins</title></rect><rect fill="#cd891b" height="4" rx="1" ry="1" width="4" x="155.80000000000007" y="30.5"><title>2024-07-10 43.9 mins</title></rect><rect fill="#b79b01" height="4" rx="1" ry="1" width="4" x="155.80000000000007" y="35.9"><title>2024-07-11 13.58 mins</title></rect><rect fill="#c1d122" height="4" rx="1" ry="1" width="4" x="155.80000000000007" y="41.300000000000004"><title>2024-07-12 107.57 mins</title></rect><rect fill="#b9ab03" height="4" rx="1" ry="1" width="4" x="155.80000000000007" y="46.699999999999996"><title>2024-07-13 26.37 mins</title></rect><rect fill="#6c71c4" height="4" rx="1" ry="1" width="4" x="155.80000000000007" y="52.1"><title>2024-07-14 176.57 mins</title></rect><rect fill="#cfaf1e" height="4" rx="1" ry="1" width="4" x="161.20000000000007" y="19.7"><title>2024-07-15 70.95 mins</title></rect><rect fill="#bfd122" height="4" rx="1" ry="1" width="4" x="161.20000000000007" y="25.1"><title>2024-07-16 108.85 mins</title></rect><rect fill="#b68e00" height="4" rx="1" ry="1" width="4" x="161.20000000000007" y="30.5"><title>2024-07-17 4.1 mins</title></rect><rect fill="#ce9f1c" height="4" rx="1" ry="1" width="4" x="161.20000000000007" y="35.9"><title>2024-07-18 59.93 mins</title></rect><rect fill="#b79b01" height="4" rx="1" ry="1" width="4" x="161.20000000000007" y="41.300000000000004"><title>2024-07-19 13.83 mins</title></rect><rect fill="#6c71c4" height="4" rx="1" ry="1" width="4" x="161.20000000000007" y="46.699999999999996"><title>2024-07-20 140.68 mins</title></rect><rect fill="#b79d02" height="4" rx="1" ry="1" width="4" x="161.20000000000007" y="52.1"><title>2024-07-21 15.45 mins</title></rect><rect fill="#6c71c4" height="4" rx="1" ry="1" width="4" x="166.60000000000008" y="19.7"><title>2024-07-22 268.32 mins</title></rect><rect fill="#6c71c4" height="4" rx="1" ry="1" width="4" x="166.60000000000008" y="25.1"><title>2024-07-23 227.62 mins</title></rect><rect fill="#6c71c4" height="4" rx="1" ry="1" width="4" x="166.60000000000008" y="30.5"><title>2024-07-24 128.82 mins</title></rect><rect fill="#b8a502" height="4" rx="1" ry="1" width="4" x="166.60000000000008" y="35.9"><title>2024-07-25 21.12 mins</title></rect><rect fill="#6c71c4" height="4" rx="1" ry="1" width="4" x="166.60000000000008" y="41.300000000000004"><title>2024-07-26 149.03 mins</title></rect><rect fill="#b58900" height="4" rx="1" ry="1" width="4" x="166.60000000000008" y="46.699999999999996"><title>2024-07-27 0.03 mins</title></rect><rect fill="#b79801" height="4" rx="1" ry="1" width="4" x="166.60000000000008" y="52.1"><title>2024-07-28 11.38 mins</title></rect><rect fill="#ce8f1b" height="4" rx="1" ry="1" width="4" x="172.00000000000009" y="19.7"><title>2024-07-29 47.88 mins</title></rect><rect fill="#cea51d" height="4" rx="1" ry="1" width="4" x="172.00000000000009" y="25.1"><title>2024-07-30 64.2 mins</title></rect><rect fill="#6c71c4" height="4" rx="1" ry="1" width="4" x="172.00000000000009" y="30.5"><title>2024-07-31 115.67 mins</title></rect><rect fill="#6c71c4" height="4" rx="1" ry="1" width="4" x="172.00000000000009" y="35.9"><title>2024-08-01 169.93 mins</title></rect><rect fill="#cd7519" height="4" rx="1" ry="1" width="4" x="172.00000000000009" y="41.300000000000004"><title>2024-08-02 29.47 mins</title></rect><rect fill="#6c71c4" height="4" rx="1" ry="1" width="4" x="172.00000000000009" y="46.699999999999996"><title>2024-08-03 360.73 mins</title></rect><rect fill="#b69001" height="4" rx="1" ry="1" width="4" x="172.00000000000009" y="52.1"><title>2024-08-04 5.62 mins</title></rect><text fill="#586e75" style="font-size:2.5px; font-family:Arial" x="177.4000000000001" y="18.3">Aug</text><rect fill="#ce961c" height="4" rx="1" ry="1" width="4" x="177.4000000000001" y="19.7"><title>2024-08-05 53.12 mins</title></rect><rect fill="#cd7b1a" height="4" rx="1" ry="1" width="4" x="177.4000000000001" y="25.1"><title>2024-08-06 34.02 mins</title></rect><rect fill="#6c71c4" height="4" rx="1" ry="1" width="4" x="177.4000000000001" y="30.5"><title>2024-08-07 201.53 mins</title></rect><rect fill="#c0d122" height="4" rx="1" ry="1" width="4" x="177.4000000000001" y="35.9"><title>2024-08-08 108.18 mins</title></rect><rect fill="#b58c00" height="4" rx="1" ry="1" width="4" x="177.4000000000001" y="41.300000000000004"><title>2024-08-09 2.47 mins</title></rect><rect fill="#6c71c4" height="4" rx="1" ry="1" width="4" x="177.4000000000001" y="46.699999999999996"><title>2024-08-10 134.57 mins</title></rect><rect fill="#b69401" height="4" rx="1" ry="1" width="4" x="177.4000000000001" y="52.1"><title>2024-08-11 8.67 mins</title></rect><rect fill="#6c71c4" height="4" rx="1" ry="1" width="4" x="182.8000000000001" y="19.7"><title>2024-08-12 157.82 mins</title></rect><rect fill="#d0cf20" height="4" rx="1" ry="1" width="4" x="182.8000000000001" y="25.1"><title>2024-08-13 94.6 mins</title></rect><rect fill="#6c71c4" height="4" rx="1" ry="1" width="4" x="182.8000000000001" y="30.5"><title>2024-08-14 194.62 mins</title></rect><rect fill="#b68f00" height="4" rx="1" ry="1" width="4" x="182.8000000000001" y="35.9"><title>2024-08-15 4.6 mins</title></rect><rect fill="#eee8d5" height="4" rx="1" ry="1" width="4" x="182.8000000000001" y="41.300000000000004"><title>2024-08-16</title></rect><rect fill="#cfae1d" height="4" rx="1" ry="1" width="4" x="182.8000000000001" y="46.699999999999996"><title>2024-08-17 70.67 mins</title></rect><rect fill="#6c71c4" height="4" rx="1" ry="1" width="4" x="182.8000000000001" y="52.1"><title>2024-08-18 286.68 mins</title></rect><rect fill="#cd7819" height="4" rx="1" ry="1" width="4" x="188.2000000000001" y="19.7"><title>2024-08-19 32.0 mins</title></rect><rect fill="#cea01c" height="4" rx="1" ry="1" width="4" x="188.2000000000001" y="25.1"><title>2024-08-20 60.73 mins</title></rect><rect fill="#6c71c4" height="4" rx="1" ry="1" width="4" x="188.2000000000001" y="30.5"><title>2024-08-21 255.12 mins</title></rect><rect fill="#cfae1e" height="4" rx="1" ry="1" width="4" x="188.2000000000001" y="35.9"><title>2024-08-22 70.83 mins</title></rect><rect fill="#6c71c4" height="4" rx="1" ry="1" width="4" x="188.2000000000001" y="41.300000000000004"><title>2024-08-23 268.55 mins</title></rect><rect fill="#ce991c" height="4" rx="1" ry="1" width="4" x="188.2000000000001" y="46.699999999999996"><title>2024-08-24 55.32 mins</title></rect><rect fill="#6c71c4" height="4" rx="1" ry="1" width="4" x="188.2000000000001" y="52.1"><title>2024-08-25 343.33 mins</title></rect><rect fill="#b58a00" height="4" rx="1" ry="1" width="4" x="193.6000000000001" y="19.7"><title>2024-08-26 0.75 mins</title></rect><rect fill="#c6d021" height="4" rx="1" ry="1" width="4" x="193.6000000000001" y="25.1"><title>2024-08-27 103.9 mins</title></rect><rect fill="#6c71c4" height="4" rx="1" ry="1" width="4" x="193.6000000000001" y="30.5"><title>2024-08-28 311.27 mins</title></rect><rect fill="#cea51d" height="4" rx="1" ry="1" width="4" x="193.6000000000001" y="35.9"><title>2024-08-29 64.1 mins</title></rect><rect fill="#eee8d5" height="4" rx="1" ry="1" width="4" x="193.6000000000001" y="41.300000000000004"><title>2024-08-30</title></rect><rect fill="#b69501" height="4" rx="1" ry="1" width="4" x="193.6000000000001" y="46.699999999999996"><title>2024-08-31 9.48 mins</title></rect><rect fill="#eee8d5" height="4" rx="1" ry="1" width="4" x="193.6000000000001" y="52.1"><title>2024-09-01</title></rect><text fill="#586e75" style="font-size:2.5px; font-family:Arial" x="199.0000000000001" y="18.3">Sep</text><rect fill="#b58b00" height="4" rx="1" ry="1" width="4" x="199.0000000000001" y="19.7"><title>2024-09-02 1.25 mins</title></rect><rect fill="#6c71c4" height="4" rx="1" ry="1" width="4" x="199.0000000000001" y="25.1"><title>2024-09-03 148.75 mins</title></rect><rect fill="#b79c02" height="4" rx="1" ry="1" width="4" x="199.0000000000001" y="30.5"><title>2024-09-04 14.65 mins</title></rect><rect fill="#cd831a" height="4" rx="1" ry="1" width="4" x="199.0000000000001" y="35.9"><title>2024-09-05 39.42 mins</title></rect><rect fill="#b69501" height="4" rx="1" ry="1" width="4" x="199.0000000000001" y="41.300000000000004"><title>2024-09-06 9.57 mins</title></rect><rect fill="#b8a803" height="4" rx="1" ry="1" width="4" x="199.0000000000001" y="46.699999999999996"><title>2024-09-07 23.37 mins</title></rect><rect fill="#b58d00" height="4" rx="1" ry="1" width="4" x="199.0000000000001" y="52.1"><title>2024-09-08 3.37 mins</title></rect><rect fill="#b68f01" height="4" rx="1" ry="1" width="4" x="204.40000000000012" y="19.7"><title>2024-09-09 4.78 mins</title></rect><rect fill="#b9af03" height="4" rx="1" ry="1" width="4" x="204.40000000000012" y="25.1"><title>2024-09-10 28.95 mins</title></rect><rect fill="#ce8f1b" height="4" rx="1" ry="1" width="4" x="204.40000000000012" y="30.5"><title>2024-09-11 48.32 mins</title></rect><rect fill="#b58900" height="4" rx="1" ry="1" width="4" x="204.40000000000012" y="35.9"><title>2024-09-12 0.15 mins</title></rect><rect fill="#b8a302" height="4" rx="1" ry="1" width="4" x="204.40000000000012" y="41.300000000000004"><title>2024-09-13 19.6 mins</title></rect><rect fill="#ce901b" height="4" rx="1" ry="1" width="4" x="204.40000000000012" y="46.699999999999996"><title>2024-09-14 49.07 mins</title></rect><rect fill="#b69001" height="4" rx="1" ry="1" width="4" x="204.40000000000012" y="52.1"><title>2024-09-15 5.77 mins</title></rect><rect fill="#eee8d5" height="4" rx="1" ry="1" width="4" x="209.80000000000013" y="19.7"><title>2024-09-16</title></rect><rect fill="#eee8d5" height="4" rx="1" ry="1" width="4" x="209.80000000000013" y="25.1"><title>2024-09-17</title></rect><rect fill="#ce951c" height="4" rx="1" ry="1" width="4" x="209.80000000000013" y="30.5"><title>2024-09-18 52.5 mins</title></rect><rect fill="#cfb31e" height="4" rx="1" ry="1" width="4" x="209.80000000000013" y="35.9"><title>2024-09-19 73.97 mins</title></rect><rect fill="#ce971c" height="4" rx="1" ry="1" width="4" x="209.80000000000013" y="41.300000000000004"><title>2024-09-20 53.65 mins</title></rect><rect fill="#6c71c4" height="4" rx="1" ry="1" width="4" x="209.80000000000013" y="46.699999999999996"><title>2024-09-21 122.77 mins</title></rect><rect fill="#ce981c" height="4" rx="1" ry="1" width="4" x="209.80000000000013" y="52.1"><title>2024-09-22 54.37 mins</title></rect><rect fill="#b79701" height="4" rx="1" ry="1" width="4" x="215.20000000000013" y="19.7"><title>2024-09-23 10.87 mins</title></rect><rect fill="#b79c02" height="4" rx="1" ry="1" width="4" x="215.20000000000013" y="25.1"><title>2024-09-24 14.3 mins</title></rect><rect fill="#ce901b" height="4" rx="1" ry="1" width="4" x="215.20000000000013" y="30.5"><title>2024-09-25 49.23 mins</title></rect><rect fill="#6c71c4" height="4" rx="1" ry="1" width="4" x="215.20000000000013" y="35.9"><title>2024-09-26 194.45 mins</title></rect><rect fill="#6c71c4" height="4" rx="1" ry="1" width="4" x="215.20000000000013" y="41.300000000000004"><title>2024-09-27 286.42 mins</title></rect><rect fill="#eee8d5" height="4" rx="1" ry="1" width="4" x="215.20000000000013" y="46.699999999999996"><title>2024-09-28</title></rect><rect fill="#b9ac03" height="4" rx="1" ry="1" width="4" x="215.20000000000013" y="52.1"><title>2024-09-29 26.88 mins</title></rect><rect fill="#b58c00" height="4" rx="1" ry="1" width="4" x="220.60000000000014" y="19.7"><title>2024-09-30 2.63 mins</title></rect><rect fill="#eee8d5" height="4" rx="1" ry="1" width="4" x="220.60000000000014" y="25.1"><title>2024-10-01</title></rect><rect fill="#b69701" height="4" rx="1" ry="1" width="4" x="220.60000000000014" y="30.5"><title>2024-10-02 10.47 mins</title></rect><rect fill="#eee8d5" height="4" rx="1" ry="1" width="4" x="220.60000000000014" y="35.9"><title>2024-10-03</title></rect><rect fill="#eee8d5" height="4" rx="1" ry="1" width="4" x="220.60000000000014" y="41.300000000000004"><title>2024-10-04</title></rect><rect fill="#eee8d5" height="4" rx="1" ry="1" width="4" x="220.60000000000014" y="46.699999999999996"><title>2024-10-05</title></rect><rect fill="#eee8d5" height="4" rx="1" ry="1" width="4" x="220.60000000000014" y="52.1"><title>2024-10-06</title></rect><text fill="#586e75" style="font-size:2.5px; font-family:Arial" x="226.00000000000014" y="18.3">Oct</text><rect fill="#b58b00" height="4" rx="1" ry="1" width="4" x="226.00000000000014" y="19.7"><title>2024-10-07 1.38 mins</title></rect><rect fill="#6c71c4" height="4" rx="1" ry="1" width="4" x="226.00000000000014" y="25.1"><title>2024-10-08 262.15 mins</title></rect><rect fill="#b58900" height="4" rx="1" ry="1" width="4" x="226.00000000000014" y="30.5"><title>2024-10-09 0.03 mins</title></rect><rect fill="#eee8d5" height="4" rx="1" ry="1" width="4" x="226.00000000000014" y="35.9"><title>2024-10-10</title></rect><rect fill="#b79a01" height="4" rx="1" ry="1" width="4" x="226.00000000000014" y="41.300000000000004"><title>2024-10-11 13.43 mins</title></rect><rect fill="#6c71c4" height="4" rx="1" ry="1" width="4" x="226.00000000000014" y="46.699999999999996"><title>2024-10-12 114.95 mins</title></rect><rect fill="#b58b00" height="4" rx="1" ry="1" width="4" x="226.00000000000014" y="52.1"><title>2024-10-13 1.83 mins</title></rect><rect fill="#cd871a" height="4" rx="1" ry="1" width="4" x="231.40000000000015" y="19.7"><title>2024-10-14 42.27 mins</title></rect><rect fill="#ce911b" height="4" rx="1" ry="1" width="4" x="231.40000000000015" y="25.1"><title>2024-10-15 49.85 mins</title></rect><rect fill="#6c71c4" height="4" rx="1" ry="1" width="4" x="231.40000000000015" y="30.5"><title>2024-10-16 493.3 mins</title></rect><rect fill="#eee8d5" height="4" rx="1" ry="1" width="4" x="231.40000000000015" y="35.9"><title>2024-10-17</title></rect><rect fill="#b79e02" height="4" rx="1" ry="1" width="4" x="231.40000000000015" y="41.300000000000004"><title>2024-10-18 15.78 mins</title></rect><rect fill="#cfb51e" height="4" rx="1" ry="1" width="4" x="231.40000000000015" y="46.699999999999996"><title>2024-10-19 75.35 mins</title></rect><rect fill="#b8a002" height="4" rx="1" ry="1" width="4" x="231.40000000000015" y="52.1"><title>2024-10-20 17.87 mins</title></rect><rect fill="#d0d020" height="4" rx="1" ry="1" width="4" x="236.80000000000015" y="19.7"><title>2024-10-21 95.38 mins</title></rect><rect fill="#6c71c4" height="4" rx="1" ry="1" width="4" x="236.80000000000015" y="25.1"><title>2024-10-22 293.18 mins</title></rect><rect fill="#b79901" height="4" rx="1" ry="1" width="4" x="236.80000000000015" y="30.5"><title>2024-10-23 12.0 mins</title></rect><rect fill="#6c71c4" height="4" rx="1" ry="1" width="4" x="236.80000000000015" y="35.9"><title>2024-10-24 135.1 mins</title></rect><rect fill="#b58a00" height="4" rx="1" ry="1" width="4" x="236.80000000000015" y="41.300000000000004"><title>2024-10-25 0.42 mins</title></rect><rect fill="#eee8d5" height="4" rx="1" ry="1" width="4" x="236.80000000000015" y="46.699999999999996"><title>2024-10-26</title></rect><rect fill="#b69201" height="4" rx="1" ry="1" width="4" x="236.80000000000015" y="52.1"><title>2024-10-27 7.02 mins</title></rect><rect fill="#cd7e1a" height="4" rx="1" ry="1" width="4" x="242.20000000000016" y="19.7"><title>2024-10-28 35.83 mins</title></rect><rect fill="#6c71c4" height="4" rx="1" ry="1" width="4" x="242.20000000000016" y="25.1"><title>2024-10-29 369.9 mins</title></rect><rect fill="#eee8d5" height="4" rx="1" ry="1" width="4" x="242.20000000000016" y="30.5"><title>2024-10-30</title></rect><rect fill="#cd8a1b" height="4" rx="1" ry="1" width="4" x="242.20000000000016" y="35.9"><title>2024-10-31 44.62 mins</title></rect><rect fill="#b58b00" height="4" rx="1" ry="1" width="4" x="242.20000000000016" y="41.300000000000004"><title>2024-11-01 1.55 mins</title></rect><rect fill="#eee8d5" height="4" rx="1" ry="1" width="4" x="242.20000000000016" y="46.699999999999996"><title>2024-11-02</title></rect><rect fill="#cd811a" height="4" rx="1" ry="1" width="4" x="242.20000000000016" y="52.1"><title>2024-11-03 38.18 mins</title></rect><text fill="#586e75" style="font-size:2.5px; font-family:Arial" x="247.60000000000016" y="18.3">Nov</text><rect fill="#6c71c4" height="4" rx="1" ry="1" width="4" x="247.60000000000016" y="19.7"><title>2024-11-04 200.43 mins</title></rect><rect fill="#b8a602" height="4" rx="1" ry="1" width="4" x="247.60000000000016" y="25.1"><title>2024-11-05 21.93 mins</title></rect><rect fill="#6c71c4" height="4" rx="1" ry="1" width="4" x="247.60000000000016" y="30.5"><title>2024-11-06 119.8 mins</title></rect><rect fill="#6c71c4" height="4" rx="1" ry="1" width="4" x="247.60000000000016" y="35.9"><title>2024-11-07 128.07 mins</title></rect><rect fill="#b8a202" height="4" rx="1" ry="1" width="4" x="247.60000000000016" y="41.300000000000004"><title>2024-11-08 18.92 mins</title></rect><rect fill="#b79f02" height="4" rx="1" ry="1" width="4" x="247.60000000000016" y="46.699999999999996"><title>2024-11-09 17.23 mins</title></rect><rect fill="#b8a402" height="4" rx="1" ry="1" width="4" x="247.60000000000016" y="52.1"><title>2024-11-10 20.42 mins</title></rect><rect fill="#eee8d5" height="4" rx="1" ry="1" width="4" x="253.00000000000017" y="19.7"><title>2024-11-11</title></rect><rect fill="#eee8d5" height="4" rx="1" ry="1" width="4" x="253.00000000000017" y="25.1"><title>2024-11-12</title></rect><rect fill="#b58d00" height="4" rx="1" ry="1" width="4" x="253.00000000000017" y="30.5"><title>2024-11-13 2.92 mins</title></rect><rect fill="#eee8d5" height="4" rx="1" ry="1" width="4" x="253.00000000000017" y="35.9"><title>2024-11-14</title></rect><rect fill="#eee8d5" height="4" rx="1" ry="1" width="4" x="253.00000000000017" y="41.300000000000004"><title>2024-11-15</title></rect><rect fill="#eee8d5" height="4" rx="1" ry="1" width="4" x="253.00000000000017" y="46.699999999999996"><title>2024-11-16</title></rect><rect fill="#eee8d5" height="4" rx="1" ry="1" width="4" x="253.00000000000017" y="52.1"><title>2024-11-17</title></rect><rect fill="#eee8d5" height="4" rx="1" ry="1" width="4" x="258.40000000000015" y="19.7"><title>2024-11-18</title></rect><rect fill="#eee8d5" height="4" rx="1" ry="1" width="4" x="258.40000000000015" y="25.1"><title>2024-11-19</title></rect><rect fill="#eee8d5" height="4" rx="1" ry="1" width="4" x="258.40000000000015" y="30.5"><title>2024-11-20</title></rect><rect fill="#eee8d5" height="4" rx="1" ry="1" width="4" x="258.40000000000015" y="35.9"><title>2024-11-21</title></rect><rect fill="#b68f00" height="4" rx="1" ry="1" width="4" x="258.40000000000015" y="41.300000000000004"><title>2024-11-22 4.27 mins</title></rect><rect fill="#cfb51e" height="4" rx="1" ry="1" width="4" x="258.40000000000015" y="46.699999999999996"><title>2024-11-23 75.57 mins</title></rect><rect fill="#6c71c4" height="4" rx="1" ry="1" width="4" x="258.40000000000015" y="52.1"><title>2024-11-24 367.82 mins</title></rect><rect fill="#b79f02" height="4" rx="1" ry="1" width="4" x="263.8000000000001" y="19.7"><title>2024-11-25 16.88 mins</title></rect><rect fill="#6c71c4" height="4" rx="1" ry="1" width="4" x="263.8000000000001" y="25.1"><title>2024-11-26 183.23 mins</title></rect><rect fill="#ce981c" height="4" rx="1" ry="1" width="4" x="263.8000000000001" y="30.5"><title>2024-11-27 54.75 mins</title></rect><rect fill="#6c71c4" height="4" rx="1" ry="1" width="4" x="263.8000000000001" y="35.9"><title>2024-11-28 324.48 mins</title></rect><rect fill="#eee8d5" height="4" rx="1" ry="1" width="4" x="263.8000000000001" y="41.300000000000004"><title>2024-11-29</title></rect><rect fill="#cd811a" height="4" rx="1" ry="1" width="4" x="263.8000000000001" y="46.699999999999996"><title>2024-11-30 37.88 mins</title></rect><rect fill="#b68e00" height="4" rx="1" ry="1" width="4" x="263.8000000000001" y="52.1"><title>2024-12-01 3.83 mins</title></rect><text fill="#586e75" style="font-size:2.5px; font-family:Arial" x="269.2000000000001" y="18.3">Dec</text><rect fill="#b69601" height="4" rx="1" ry="1" width="4" x="269.2000000000001" y="19.7"><title>2024-12-02 9.75 mins</title></rect><rect fill="#cd7719" height="4" rx="1" ry="1" width="4" x="269.2000000000001" y="25.1"><title>2024-12-03 31.02 mins</title></rect><rect fill="#b69301" height="4" rx="1" ry="1" width="4" x="269.2000000000001" y="30.5"><title>2024-12-04 7.73 mins</title></rect><rect fill="#b69701" height="4" rx="1" ry="1" width="4" x="269.2000000000001" y="35.9"><title>2024-12-05 10.43 mins</title></rect><rect fill="#b68e00" height="4" rx="1" ry="1" width="4" x="269.2000000000001" y="41.300000000000004"><title>2024-12-06 3.63 mins</title></rect><rect fill="#b69501" height="4" rx="1" ry="1" width="4" x="269.2000000000001" y="46.699999999999996"><title>2024-12-07 9.57 mins</title></rect><rect fill="#b79a01" height="4" rx="1" ry="1" width="4" x="269.2000000000001" y="52.1"><title>2024-12-08 12.83 mins</title></rect><rect fill="#b68e00" height="4" rx="1" ry="1" width="4" x="274.6000000000001" y="19.7"><title>2024-12-09 3.65 mins</title></rect><rect fill="#eee8d5" height="4" rx="1" ry="1" width="4" x="274.6000000000001" y="25.1"><title>2024-12-10</title></rect><rect fill="#b58d00" height="4" rx="1" ry="1" width="4" x="274.6000000000001" y="30.5"><title>2024-12-11 3.08 mins</title></rect><rect fill="#b9ac03" height="4" rx="1" ry="1" width="4" x="274.6000000000001" y="35.9"><title>2024-12-12 27.17 mins</title></rect><rect fill="#6c71c4" height="4" rx="1" ry="1" width="4" x="274.6000000000001" y="41.300000000000004"><title>2024-12-13 371.45 mins</title></rect><rect fill="#eee8d5" height="4" rx="1" ry="1" width="4" x="274.6000000000001" y="46.699999999999996"><title>2024-12-14</title></rect><rect fill="#eee8d5" height="4" rx="1" ry="1" width="4" x="274.6000000000001" y="52.1"><title>2024-12-15</title></rect><rect fill="#b58900" height="4" rx="1" ry="1" width="4" x="280.00000000000006" y="19.7"><title>2024-12-16 0.4 mins</title></rect><rect fill="#b69401" height="4" rx="1" ry="1" width="4" x="280.00000000000006" y="25.1"><title>2024-12-17 8.48 mins</title></rect><rect fill="#b58900" height="4" rx="1" ry="1" width="4" x="280.00000000000006" y="30.5"><title>2024-12-18 0.08 mins</title></rect><rect fill="#d0c820" height="4" rx="1" ry="1" width="4" x="280.00000000000006" y="35.9"><title>2024-12-19 89.65 mins</title></rect><rect fill="#cd7419" height="4" rx="1" ry="1" width="4" x="280.00000000000006" y="41.300000000000004"><title>2024-12-20 29.1 mins</title></rect><rect fill="#b79f02" height="4" rx="1" ry="1" width="4" x="280.00000000000006" y="46.699999999999996"><title>2024-12-21 16.55 mins</title></rect><rect fill="#b79701" height="4" rx="1" ry="1" width="4" x="280.00000000000006" y="52.1"><title>2024-12-22 11.13 mins</title></rect><rect fill="#b69301" height="4" rx="1" ry="1" width="4" x="285.40000000000003" y="19.7"><title>2024-12-23 7.67 mins</title></rect><rect fill="#b79a01" height="4" rx="1" ry="1" width="4" x="285.40000000000003" y="25.1"><title>2024-12-24 13.13 mins</title></rect><rect fill="#cd8a1b" height="4" rx="1" ry="1" width="4" x="285.40000000000003" y="30.5"><title>2024-12-25 44.67 mins</title></rect><rect fill="#ce9e1c" height="4" rx="1" ry="1" width="4" x="285.40000000000003" y="35.9"><title>2024-12-26 59.0 mins</title></rect><rect fill="#6c71c4" height="4" rx="1" ry="1" width="4" x="285.40000000000003" y="41.300000000000004"><title>2024-12-27 190.33 mins</title></rect><rect fill="#ce941b" height="4" rx="1" ry="1" width="4" x="285.40000000000003" y="46.699999999999996"><title>2024-12-28 51.9 mins</title></rect><rect fill="#cd891b" height="4" rx="1" ry="1" width="4" x="285.40000000000003" y="52.1"><title>2024-12-29 43.55 mins</title></rect><rect fill="#b79c02" height="4" rx="1" ry="1" width="4" x="290.8" y="19.7"><title>2024-12-30 14.52 mins</title></rect><rect fill="#6c71c4" height="4" rx="1" ry="1" width="4" x="290.8" y="25.1"><title>2024-12-31 246.78 mins</title></rect></svg>